<svg xmlns="http://www.w3.org/2000/svg" viewBox="0 0 100 100" width="100" height="100">
  <defs>
    <linearGradient id="glassGradient" x1="0%" y1="0%" x2="0%" y2="100%">
      <stop offset="0%" style="stop-color:#F8F9FA;stop-opacity:0.9" />
      <stop offset="50%" style="stop-color:#E9ECEF;stop-opacity:0.8" />
      <stop offset="100%" style="stop-color:#DEE2E6;stop-opacity:0.9" />
    </linearGradient>
    <linearGradient id="waterGlass" x1="0%" y1="0%" x2="0%" y2="100%">
      <stop offset="0%" style="stop-color:#4FC3F7;stop-opacity:0.8" />
      <stop offset="50%" style="stop-color:#29B6F6;stop-opacity:0.9" />
      <stop offset="100%" style="stop-color:#1976D2;stop-opacity:1" />
    </linearGradient>
    <filter id="glassShadow" x="-50%" y="-50%" width="200%" height="200%">
      <feDropShadow dx="1" dy="3" stdDeviation="2" flood-color="rgba(52, 152, 219, 0.25)"/>
    </filter>
  </defs>
  
  <!-- Glass outline -->
  <path d="M30 20 L30 75 Q30 82, 37 85 L63 85 Q70 82, 70 75 L70 20 Z" 
        fill="none" 
        stroke="url(#glassGradient)" 
        stroke-width="2" 
        filter="url(#glassShadow)"/>
  
  <!-- Glass base -->
  <ellipse cx="50" cy="85" rx="20" ry="3" fill="url(#glassGradient)" opacity="0.6"/>
  
  <!-- Water inside glass -->
  <path d="M32 55 L32 73 Q32 78, 37 80 L63 80 Q68 78, 68 73 L68 55 Z" 
        fill="url(#waterGlass)"/>
  
  <!-- Water surface -->
  <ellipse cx="50" cy="55" rx="18" ry="2" fill="#42A5F5" opacity="0.9"/>
  
  <!-- Glass reflection -->
  <path d="M32 22 L32 40 Q35 38, 40 40 L40 22" 
        fill="rgba(255,255,255,0.4)" 
        opacity="0.8"/>
  
  <!-- Water bubbles -->
  <circle cx="45" cy="65" r="2" fill="rgba(255,255,255,0.6)" opacity="0.7"/>
  <circle cx="55" cy="70" r="1.5" fill="rgba(255,255,255,0.5)" opacity="0.6"/>
  <circle cx="40" cy="72" r="1" fill="rgba(255,255,255,0.4)" opacity="0.5"/>
  
  <!-- Glass rim highlight -->
  <ellipse cx="50" cy="20" rx="20" ry="1.5" fill="rgba(255,255,255,0.7)" opacity="0.8"/>
</svg>
